<svg
   xmlns:svg="http://www.w3.org/2000/svg"
   xmlns="http://www.w3.org/2000/svg"
   xmlns:xlink="http://www.w3.org/1999/xlink"
   version="1.0"
   width="108.071"
   height="168.005"
   id="svg2403"
   xml:space="preserve">
<text x="0" y="0" id="text1000">
  <tspan x="0" y="0" fill="#000000"  font-variant="normal" font-weight="normal" font-style="normal" font-family="Bitstream Vera Sans" font-size="12" id="tspan1001"></tspan>
</text>
<path
 fill="#d7efc5" stroke="none"
 d="M 24.5907 149.775 L 24.5907,149.775L 42.6657,149.775L 42.6657,155.16L 24.5907,155.16Z"/>
<path
 fill="none" stroke="#000000" stroke-width="1.44" stroke-linecap="butt" stroke-linejoin="miter"
 d="M 31.6842 152.467 L 35.5722 152.467 "/>
<path
 fill="#d7efc5" stroke="none"
 d="M 24.5907 142.215 L 24.5907,142.215L 42.6657,142.215L 42.6657,147.6L 24.5907,147.6Z"/>
<path
 fill="none" stroke="#000000" stroke-width="1.44" stroke-linecap="butt" stroke-linejoin="miter"
 d="M 31.6842 144.907 L 35.5722 144.907 "/>
<path
 fill="#d7efc5" stroke="none"
 d="M 24.5907 134.655 L 24.5907,134.655L 42.6657,134.655L 42.6657,140.04L 24.5907,140.04Z"/>
<path
 fill="none" stroke="#000000" stroke-width="1.44" stroke-linecap="butt" stroke-linejoin="miter"
 d="M 31.6842 137.347 L 35.5722 137.347 "/>
<path
 fill="#d7efc5" stroke="none"
 d="M 24.5907 127.095 L 24.5907,127.095L 42.6657,127.095L 42.6657,132.48L 24.5907,132.48Z"/>
<path
 fill="none" stroke="#000000" stroke-width="1.44" stroke-linecap="butt" stroke-linejoin="miter"
 d="M 31.6842 129.787 L 35.5722 129.787 "/>
<path
 fill="#d7efc5" stroke="none"
 d="M 24.5907 119.535 L 24.5907,119.535L 42.6657,119.535L 42.6657,124.92L 24.5907,124.92Z"/>
<path
 fill="none" stroke="#000000" stroke-width="1.44" stroke-linecap="butt" stroke-linejoin="miter"
 d="M 31.6842 122.227 L 35.5722 122.227 "/>
<path
 fill="#d7efc5" stroke="none"
 d="M 24.5907 111.975 L 24.5907,111.975L 42.6657,111.975L 42.6657,117.36L 24.5907,117.36Z"/>
<path
 fill="none" stroke="#000000" stroke-width="1.44" stroke-linecap="butt" stroke-linejoin="miter"
 d="M 31.6842 114.667 L 35.5722 114.667 "/>
<path
 fill="#d7efc5" stroke="none"
 d="M 24.5907 104.415 L 24.5907,104.415L 42.6657,104.415L 42.6657,109.8L 24.5907,109.8Z"/>
<path
 fill="none" stroke="#000000" stroke-width="1.44" stroke-linecap="butt" stroke-linejoin="miter"
 d="M 31.6842 107.107 L 35.5722 107.107 "/>
<path
 fill="#d7efc5" stroke="none"
 d="M 24.5907 96.8546 L 24.5907,96.8546L 42.6657,96.8546L 42.6657,102.24L 24.5907,102.24Z"/>
<path
 fill="none" stroke="#000000" stroke-width="1.44" stroke-linecap="butt" stroke-linejoin="miter"
 d="M 31.6842 99.5471 L 35.5722 99.5471 "/>
<path
 fill="#d7efc5" stroke="none"
 d="M 24.5907 89.2946 L 24.5907,89.2946L 42.6657,89.2946L 42.6657,94.6796L 24.5907,94.6796Z"/>
<path
 fill="none" stroke="#000000" stroke-width="1.44" stroke-linecap="butt" stroke-linejoin="miter"
 d="M 31.6842 91.9871 L 35.5722 91.9871 "/>
<path
 fill="#d7efc5" stroke="none"
 d="M 24.5907 81.7346 L 24.5907,81.7346L 42.6657,81.7346L 42.6657,87.1196L 24.5907,87.1196Z"/>
<path
 fill="none" stroke="#000000" stroke-width="1.44" stroke-linecap="butt" stroke-linejoin="miter"
 d="M 31.6842 84.4271 L 35.5722 84.4271 "/>
<path
 fill="#d7efc5" stroke="none"
 d="M 24.5907 74.1746 L 24.5907,74.1746L 42.6657,74.1746L 42.6657,79.5596L 24.5907,79.5596Z"/>
<path
 fill="none" stroke="#000000" stroke-width="1.44" stroke-linecap="butt" stroke-linejoin="miter"
 d="M 31.6842 76.8671 L 35.5722 76.8671 "/>
<path
 fill="#d7efc5" stroke="none"
 d="M 24.5907 66.6146 L 24.5907,66.6146L 42.6657,66.6146L 42.6657,71.9996L 24.5907,71.9996Z"/>
<path
 fill="none" stroke="#000000" stroke-width="1.44" stroke-linecap="butt" stroke-linejoin="miter"
 d="M 31.6842 69.3071 L 35.5722 69.3071 "/>
<path
 fill="#d7efc5" stroke="none"
 d="M 24.5907 59.0546 L 24.5907,59.0546L 42.6657,59.0546L 42.6657,64.4396L 24.5907,64.4396Z"/>
<path
 fill="none" stroke="#000000" stroke-width="1.44" stroke-linecap="butt" stroke-linejoin="miter"
 d="M 31.6842 61.7471 L 35.5722 61.7471 "/>
<path
 fill="#d7efc5" stroke="none"
 d="M 24.5907 51.4946 L 24.5907,51.4946L 42.6657,51.4946L 42.6657,56.8796L 24.5907,56.8796Z"/>
<path
 fill="none" stroke="#000000" stroke-width="1.44" stroke-linecap="butt" stroke-linejoin="miter"
 d="M 31.6842 54.1871 L 35.5722 54.1871 "/>
<path
 fill="#d7efc5" stroke="none"
 d="M 24.5907 43.9346 L 24.5907,43.9346L 42.6657,43.9346L 42.6657,49.3196L 24.5907,49.3196Z"/>
<path
 fill="none" stroke="#000000" stroke-width="1.44" stroke-linecap="butt" stroke-linejoin="miter"
 d="M 31.6842 46.6271 L 35.5722 46.6271 "/>
<path
 fill="none" stroke="#000000" stroke-width="1.44" stroke-linecap="butt" stroke-linejoin="miter"
 d="M 31.6842 39.0671 L 35.5722 39.0671 "/>
<path
 fill="none" stroke="#5c5c5c" stroke-width="0.5" stroke-linecap="butt" stroke-linejoin="miter"
 d=""/>
<path
 fill="none" stroke="#5c5c5c" stroke-width="0.5" stroke-linecap="butt" stroke-linejoin="miter"
 d=""/>
<path
 fill="none" stroke="#5c5c5c" stroke-width="0.5" stroke-linecap="butt" stroke-linejoin="miter"
 d=""/>
<path
 fill="none" stroke="#5c5c5c" stroke-width="0.5" stroke-linecap="butt" stroke-linejoin="miter"
 d=""/>
<path
 fill="none" stroke="#5c5c5c" stroke-width="0.5" stroke-linecap="butt" stroke-linejoin="miter"
 d=""/>
<path
 fill="none" stroke="#5c5c5c" stroke-width="0.5" stroke-linecap="butt" stroke-linejoin="miter"
 d=""/>
<path
 fill="none" stroke="#5c5c5c" stroke-width="0.5" stroke-linecap="butt" stroke-linejoin="miter"
 d=""/>
<path
 fill="none" stroke="#5c5c5c" stroke-width="0.5" stroke-linecap="butt" stroke-linejoin="miter"
 d=""/>
<path
 fill="none" stroke="#5c5c5c" stroke-width="0.5" stroke-linecap="butt" stroke-linejoin="miter"
 d=""/>
<path
 fill="none" stroke="#5c5c5c" stroke-width="0.5" stroke-linecap="butt" stroke-linejoin="miter"
 d=""/>
<path
 fill="none" stroke="#5c5c5c" stroke-width="0.5" stroke-linecap="butt" stroke-linejoin="miter"
 d=""/>
<path
 fill="none" stroke="#5c5c5c" stroke-width="0.5" stroke-linecap="butt" stroke-linejoin="miter"
 d=""/>
<path
 fill="none" stroke="#5c5c5c" stroke-width="0.5" stroke-linecap="butt" stroke-linejoin="miter"
 d=""/>
<path
 fill="none" stroke="#5c5c5c" stroke-width="0.5" stroke-linecap="butt" stroke-linejoin="miter"
 d=""/>
<path
 fill="none" stroke="#5c5c5c" stroke-width="0.5" stroke-linecap="butt" stroke-linejoin="miter"
 d=""/>
<path
 fill="none" stroke="#5c5c5c" stroke-width="0.5" stroke-linecap="butt" stroke-linejoin="miter"
 d=""/>
<path
 fill="none" stroke="#5c5c5c" stroke-width="0.5" stroke-linecap="butt" stroke-linejoin="miter"
 d=""/>
<path
 fill="none" stroke="#5c5c5c" stroke-width="0.5" stroke-linecap="butt" stroke-linejoin="miter"
 d=""/>
<path
 fill="none" stroke="#5c5c5c" stroke-width="0.5" stroke-linecap="butt" stroke-linejoin="miter"
 d=""/>
<path
 fill="none" stroke="#5c5c5c" stroke-width="0.5" stroke-linecap="butt" stroke-linejoin="miter"
 d=""/>
<path
 fill="none" stroke="#5c5c5c" stroke-width="0.5" stroke-linecap="butt" stroke-linejoin="miter"
 d=""/>
<path
 fill="none" stroke="#5c5c5c" stroke-width="0.5" stroke-linecap="butt" stroke-linejoin="miter"
 d=""/>
<path
 fill="none" stroke="#5c5c5c" stroke-width="0.5" stroke-linecap="butt" stroke-linejoin="miter"
 d=""/>
<path
 fill="none" stroke="#5c5c5c" stroke-width="0.5" stroke-linecap="butt" stroke-linejoin="miter"
 d=""/>
<path
 fill="none" stroke="#5c5c5c" stroke-width="0.5" stroke-linecap="butt" stroke-linejoin="miter"
 d=""/>
<path
 fill="none" stroke="#5c5c5c" stroke-width="0.5" stroke-linecap="butt" stroke-linejoin="miter"
 d=""/>
<path
 fill="none" stroke="#5c5c5c" stroke-width="0.5" stroke-linecap="butt" stroke-linejoin="miter"
 d=""/>
<path
 fill="none" stroke="#5c5c5c" stroke-width="0.5" stroke-linecap="butt" stroke-linejoin="miter"
 d=""/>
<path
 fill="none" stroke="#5c5c5c" stroke-width="0.5" stroke-linecap="butt" stroke-linejoin="miter"
 d=""/>
<path
 fill="none" stroke="#5c5c5c" stroke-width="0.5" stroke-linecap="butt" stroke-linejoin="miter"
 d=""/>
<path
 fill="none" stroke="#5c5c5c" stroke-width="0.5" stroke-linecap="butt" stroke-linejoin="miter"
 d=""/>
<path
 fill="none" stroke="#5c5c5c" stroke-width="0.5" stroke-linecap="butt" stroke-linejoin="miter"
 d=""/>
<path
 fill="none" stroke="#5c5c5c" stroke-width="0.5" stroke-linecap="butt" stroke-linejoin="miter"
 d=""/>
<path
 fill="none" stroke="#5c5c5c" stroke-width="0.5" stroke-linecap="butt" stroke-linejoin="miter"
 d=""/>
<path
 fill="none" stroke="#5c5c5c" stroke-width="0.5" stroke-linecap="butt" stroke-linejoin="miter"
 d=""/>
<path
 fill="none" stroke="#5c5c5c" stroke-width="0.5" stroke-linecap="butt" stroke-linejoin="miter"
 d=""/>
<path
 fill="none" stroke="#5c5c5c" stroke-width="0.5" stroke-linecap="butt" stroke-linejoin="miter"
 d=""/>
<path
 fill="none" stroke="#5c5c5c" stroke-width="0.5" stroke-linecap="butt" stroke-linejoin="miter"
 d=""/>
<path
 fill="none" stroke="#5c5c5c" stroke-width="0.5" stroke-linecap="butt" stroke-linejoin="miter"
 d=""/>
<path
 fill="none" stroke="#5c5c5c" stroke-width="0.5" stroke-linecap="butt" stroke-linejoin="miter"
 d=""/>
<path
 fill="none" stroke="#5c5c5c" stroke-width="0.5" stroke-linecap="butt" stroke-linejoin="miter"
 d=""/>
<path
 fill="none" stroke="#5c5c5c" stroke-width="0.5" stroke-linecap="butt" stroke-linejoin="miter"
 d=""/>
<path
 fill="none" stroke="#5c5c5c" stroke-width="0.5" stroke-linecap="butt" stroke-linejoin="miter"
 d=""/>
<path
 fill="none" stroke="#5c5c5c" stroke-width="0.5" stroke-linecap="butt" stroke-linejoin="miter"
 d=""/>
<path
 fill="none" stroke="#5c5c5c" stroke-width="0.5" stroke-linecap="butt" stroke-linejoin="miter"
 d=""/>
<path
 fill="none" stroke="#5c5c5c" stroke-width="0.5" stroke-linecap="butt" stroke-linejoin="miter"
 d=""/>
<path
 fill="none" stroke="#5c5c5c" stroke-width="0.5" stroke-linecap="butt" stroke-linejoin="miter"
 d=""/>
<path
 fill="none" stroke="#5c5c5c" stroke-width="0.5" stroke-linecap="butt" stroke-linejoin="miter"
 d=""/>
<path
 fill="none" stroke="#5c5c5c" stroke-width="0.5" stroke-linecap="butt" stroke-linejoin="miter"
 d=""/>
<path
 fill="none" stroke="#5c5c5c" stroke-width="0.5" stroke-linecap="butt" stroke-linejoin="miter"
 d=""/>
<path
 fill="none" stroke="#5c5c5c" stroke-width="0.5" stroke-linecap="butt" stroke-linejoin="miter"
 d=""/>
<path
 fill="none" stroke="#5c5c5c" stroke-width="0.5" stroke-linecap="butt" stroke-linejoin="miter"
 d=""/>
<path
 fill="none" stroke="#5c5c5c" stroke-width="0.5" stroke-linecap="butt" stroke-linejoin="miter"
 d=""/>
<path
 fill="none" stroke="#5c5c5c" stroke-width="0.5" stroke-linecap="butt" stroke-linejoin="miter"
 d=""/>
<path
 fill="none" stroke="#5c5c5c" stroke-width="0.5" stroke-linecap="butt" stroke-linejoin="miter"
 d=""/>
<path
 fill="none" stroke="#5c5c5c" stroke-width="0.5" stroke-linecap="butt" stroke-linejoin="miter"
 d=""/>
<path
 fill="none" stroke="#5c5c5c" stroke-width="0.5" stroke-linecap="butt" stroke-linejoin="miter"
 d=""/>
<path
 fill="none" stroke="#5c5c5c" stroke-width="0.5" stroke-linecap="butt" stroke-linejoin="miter"
 d=""/>
<path
 fill="none" stroke="#5c5c5c" stroke-width="0.5" stroke-linecap="butt" stroke-linejoin="miter"
 d=""/>
<path
 fill="none" stroke="#5c5c5c" stroke-width="0.5" stroke-linecap="butt" stroke-linejoin="miter"
 d=""/>
<path
 fill="none" stroke="#5c5c5c" stroke-width="0.5" stroke-linecap="butt" stroke-linejoin="miter"
 d=""/>
<path
 fill="none" stroke="#5c5c5c" stroke-width="0.5" stroke-linecap="butt" stroke-linejoin="miter"
 d=""/>
<path
 fill="none" stroke="#5c5c5c" stroke-width="0.5" stroke-linecap="butt" stroke-linejoin="miter"
 d=""/>
<path
 fill="none" stroke="#5c5c5c" stroke-width="0.5" stroke-linecap="butt" stroke-linejoin="miter"
 d=""/>
<path
 fill="none" stroke="#5c5c5c" stroke-width="0.5" stroke-linecap="butt" stroke-linejoin="miter"
 d=""/>
<path
 fill="none" stroke="#5c5c5c" stroke-width="0.5" stroke-linecap="butt" stroke-linejoin="miter"
 d=""/>
<path
 fill="none" stroke="#5c5c5c" stroke-width="0.5" stroke-linecap="butt" stroke-linejoin="miter"
 d=""/>
<path
 fill="none" stroke="#5c5c5c" stroke-width="0.5" stroke-linecap="butt" stroke-linejoin="miter"
 d=""/>
<path
 fill="none" stroke="#5c5c5c" stroke-width="0.5" stroke-linecap="butt" stroke-linejoin="miter"
 d=""/>
<path
 fill="none" stroke="#5c5c5c" stroke-width="0.5" stroke-linecap="butt" stroke-linejoin="miter"
 d=""/>
<path
 fill="none" stroke="#5c5c5c" stroke-width="0.5" stroke-linecap="butt" stroke-linejoin="miter"
 d=""/>
<path
 fill="none" stroke="#5c5c5c" stroke-width="0.5" stroke-linecap="butt" stroke-linejoin="miter"
 d=""/>
<path
 fill="none" stroke="#5c5c5c" stroke-width="0.5" stroke-linecap="butt" stroke-linejoin="miter"
 d=""/>
<path
 fill="none" stroke="#5c5c5c" stroke-width="0.5" stroke-linecap="butt" stroke-linejoin="miter"
 d=""/>
<path
 fill="none" stroke="#5c5c5c" stroke-width="0.5" stroke-linecap="butt" stroke-linejoin="miter"
 d=""/>
<path
 fill="none" stroke="#5c5c5c" stroke-width="0.5" stroke-linecap="butt" stroke-linejoin="miter"
 d=""/>
<path
 fill="none" stroke="#5c5c5c" stroke-width="0.5" stroke-linecap="butt" stroke-linejoin="miter"
 d=""/>
<path
 fill="none" stroke="#5c5c5c" stroke-width="0.5" stroke-linecap="butt" stroke-linejoin="miter"
 d=""/>
<path
 fill="none" stroke="#5c5c5c" stroke-width="0.5" stroke-linecap="butt" stroke-linejoin="miter"
 d=""/>
<path
 fill="none" stroke="#5c5c5c" stroke-width="0.5" stroke-linecap="butt" stroke-linejoin="miter"
 d=""/>
<path
 fill="none" stroke="#5c5c5c" stroke-width="0.5" stroke-linecap="butt" stroke-linejoin="miter"
 d=""/>
<path
 fill="none" stroke="#5c5c5c" stroke-width="0.5" stroke-linecap="butt" stroke-linejoin="miter"
 d=""/>
<path
 fill="none" stroke="#5c5c5c" stroke-width="0.5" stroke-linecap="butt" stroke-linejoin="miter"
 d=""/>
<path
 fill="none" stroke="#5c5c5c" stroke-width="0.5" stroke-linecap="butt" stroke-linejoin="miter"
 d=""/>
<path
 fill="none" stroke="#5c5c5c" stroke-width="0.5" stroke-linecap="butt" stroke-linejoin="miter"
 d=""/>
<path
 fill="none" stroke="#5c5c5c" stroke-width="0.5" stroke-linecap="butt" stroke-linejoin="miter"
 d=""/>
<path
 fill="none" stroke="#5c5c5c" stroke-width="0.5" stroke-linecap="butt" stroke-linejoin="miter"
 d=""/>
<path
 fill="none" stroke="#5c5c5c" stroke-width="0.5" stroke-linecap="butt" stroke-linejoin="miter"
 d=""/>
<path
 fill="none" stroke="#5c5c5c" stroke-width="0.5" stroke-linecap="butt" stroke-linejoin="miter"
 d=""/>
<path
 fill="none" stroke="#5c5c5c" stroke-width="0.5" stroke-linecap="butt" stroke-linejoin="miter"
 d=""/>
<path
 fill="none" stroke="#5c5c5c" stroke-width="0.5" stroke-linecap="butt" stroke-linejoin="miter"
 d=""/>
<path
 fill="none" stroke="#5c5c5c" stroke-width="0.5" stroke-linecap="butt" stroke-linejoin="miter"
 d=""/>
<path
 fill="none" stroke="#5c5c5c" stroke-width="0.5" stroke-linecap="butt" stroke-linejoin="miter"
 d=""/>
<path
 fill="none" stroke="#5c5c5c" stroke-width="0.5" stroke-linecap="butt" stroke-linejoin="miter"
 d=""/>
<path
 fill="none" stroke="#5c5c5c" stroke-width="0.5" stroke-linecap="butt" stroke-linejoin="miter"
 d=""/>
<path
 fill="none" stroke="#5c5c5c" stroke-width="0.5" stroke-linecap="butt" stroke-linejoin="miter"
 d=""/>
<path
 fill="none" stroke="#5c5c5c" stroke-width="0.5" stroke-linecap="butt" stroke-linejoin="miter"
 d=""/>
<path
 fill="none" stroke="#5c5c5c" stroke-width="0.5" stroke-linecap="butt" stroke-linejoin="miter"
 d=""/>
<path
 fill="none" stroke="#5c5c5c" stroke-width="0.5" stroke-linecap="butt" stroke-linejoin="miter"
 d=""/>
<path
 fill="none" stroke="#5c5c5c" stroke-width="0.5" stroke-linecap="butt" stroke-linejoin="miter"
 d=""/>
<path
 fill="none" stroke="#5c5c5c" stroke-width="0.5" stroke-linecap="butt" stroke-linejoin="miter"
 d=""/>
<path
 fill="none" stroke="#5c5c5c" stroke-width="0.5" stroke-linecap="butt" stroke-linejoin="miter"
 d=""/>
<text x="19.6612" y="160.505" id="text1002">
  <tspan x="19.6612" y="160.505" fill="#807b88"  font-variant="normal" font-weight="normal" font-style="normal" font-family="Bitstream Vera Sans" font-size="7.5" id="tspan1003">A</tspan>
</text>
<text x="25.007" y="155.16" id="text1004">
  <tspan x="25.007" y="155.16" fill="#000000"  font-variant="normal" font-weight="normal" font-style="normal" font-family="Bitstream Vera Sans" font-size="7.5" id="tspan1005">A</tspan>
</text>
<text x="25.007" y="147.6" id="text1006">
  <tspan x="25.007" y="147.6" fill="#807b88"  font-variant="normal" font-weight="normal" font-style="normal" font-family="Bitstream Vera Sans" font-size="7.5" id="tspan1007">A</tspan>
</text>
<text x="24.8007" y="140.04" id="text1008">
  <tspan x="24.8007" y="140.04" fill="#000000"  font-variant="normal" font-weight="normal" font-style="normal" font-family="Bitstream Vera Sans" font-size="7.5" id="tspan1009">R</tspan>
</text>
<text x="24.8007" y="132.48" id="text1010">
  <tspan x="24.8007" y="132.48" fill="#807b88"  font-variant="normal" font-weight="normal" font-style="normal" font-family="Bitstream Vera Sans" font-size="7.5" id="tspan1011">R</tspan>
</text>
<path
 fill="#d90000" stroke="#000000" stroke-width="0.72" stroke-linecap="butt" stroke-linejoin="miter"
 d="M 30.0657 122.227 A 2.5575,2.5575 0 0,1 24.9507,122.227A 2.5575,2.5575 0 0,1 30.0657,122.227Z"/>
<path
 fill="#d90000" stroke="#000000" stroke-width="0.72" stroke-linecap="butt" stroke-linejoin="miter"
 d="M 30.0657 114.667 A 2.5575,2.5575 0 0,1 24.9507,114.667A 2.5575,2.5575 0 0,1 30.0657,114.667Z"/>
<path
 fill="#d90000" stroke="#000000" stroke-width="0.72" stroke-linecap="butt" stroke-linejoin="miter"
 d="M 30.0657 107.107 A 2.5575,2.5575 0 0,1 24.9507,107.107A 2.5575,2.5575 0 0,1 30.0657,107.107Z"/>
<path
 fill="#d90000" stroke="#000000" stroke-width="0.72" stroke-linecap="butt" stroke-linejoin="miter"
 d="M 30.0657 99.5471 A 2.5575,2.5575 0 0,1 24.9507,99.5471A 2.5575,2.5575 0 0,1 30.0657,99.5471Z"/>
<path
 fill="#d90000" stroke="#000000" stroke-width="0.72" stroke-linecap="butt" stroke-linejoin="miter"
 d="M 30.0657 91.9871 A 2.5575,2.5575 0 0,1 24.9507,91.9871A 2.5575,2.5575 0 0,1 30.0657,91.9871Z"/>
<path
 fill="#d90000" stroke="#000000" stroke-width="0.72" stroke-linecap="butt" stroke-linejoin="miter"
 d="M 30.0657 84.4271 A 2.5575,2.5575 0 0,1 24.9507,84.4271A 2.5575,2.5575 0 0,1 30.0657,84.4271Z"/>
<path
 fill="#d90000" stroke="#000000" stroke-width="0.72" stroke-linecap="butt" stroke-linejoin="miter"
 d="M 30.0657 76.8671 A 2.5575,2.5575 0 0,1 24.9507,76.8671A 2.5575,2.5575 0 0,1 30.0657,76.8671Z"/>
<path
 fill="#d90000" stroke="#000000" stroke-width="0.72" stroke-linecap="butt" stroke-linejoin="miter"
 d="M 30.0657 69.3071 A 2.5575,2.5575 0 0,1 24.9507,69.3071A 2.5575,2.5575 0 0,1 30.0657,69.3071Z"/>
<path
 fill="#d90000" stroke="#000000" stroke-width="0.72" stroke-linecap="butt" stroke-linejoin="miter"
 d="M 30.0657 61.7471 A 2.5575,2.5575 0 0,1 24.9507,61.7471A 2.5575,2.5575 0 0,1 30.0657,61.7471Z"/>
<path
 fill="#d90000" stroke="#000000" stroke-width="0.72" stroke-linecap="butt" stroke-linejoin="miter"
 d="M 30.0657 54.1871 A 2.5575,2.5575 0 0,1 24.9507,54.1871A 2.5575,2.5575 0 0,1 30.0657,54.1871Z"/>
<path
 fill="#000000" stroke="#000000" stroke-width="0.72" stroke-linecap="butt" stroke-linejoin="miter"
 d="M 30.0657 46.6271 A 2.5575,2.5575 0 0,1 24.9507,46.6271A 2.5575,2.5575 0 0,1 30.0657,46.6271Z"/>
<path
 fill="#807b88" stroke="#000000" stroke-width="0.72" stroke-linecap="butt" stroke-linejoin="miter"
 d="M 30.0657 39.0671 A 2.5575,2.5575 0 0,1 24.9507,39.0671A 2.5575,2.5575 0 0,1 30.0657,39.0671Z"/>
<path
 fill="#d90000" stroke="#000000" stroke-width="0.72" stroke-linecap="butt" stroke-linejoin="miter"
 d="M 24.083 34.4454 A 2.5575,2.5575 0 0,1 18.968,34.4454A 2.5575,2.5575 0 0,1 24.083,34.4454Z"/>
<path
 fill="#d90000" stroke="#000000" stroke-width="0.72" stroke-linecap="butt" stroke-linejoin="miter"
 d="M 21.026 27.531 A 2.5575,2.5575 0 0,1 15.911,27.531A 2.5575,2.5575 0 0,1 21.026,27.531Z"/>
<path
 fill="#807b88" stroke="#000000" stroke-width="0.72" stroke-linecap="butt" stroke-linejoin="miter"
 d="M 21.6338 19.9955 A 2.5575,2.5575 0 0,1 16.5188,19.9955A 2.5575,2.5575 0 0,1 21.6338,19.9955Z"/>
<path
 fill="#ffffff" stroke="#000000" stroke-width="0.72" stroke-linecap="butt" stroke-linejoin="miter"
 d="M 25.7595 13.6605 A 2.5575,2.5575 0 0,1 20.6445,13.6605A 2.5575,2.5575 0 0,1 25.7595,13.6605Z"/>
<path
 fill="#000000" stroke="#000000" stroke-width="0.72" stroke-linecap="butt" stroke-linejoin="miter"
 d="M 32.4057 10.0575 A 2.5575,2.5575 0 0,1 27.2907,10.0575A 2.5575,2.5575 0 0,1 32.4057,10.0575Z"/>
<path
 fill="#000000" stroke="#000000" stroke-width="0.72" stroke-linecap="butt" stroke-linejoin="miter"
 d="M 39.9657 10.0575 A 2.5575,2.5575 0 0,1 34.8507,10.0575A 2.5575,2.5575 0 0,1 39.9657,10.0575Z"/>
<path
 fill="#000000" stroke="#000000" stroke-width="0.72" stroke-linecap="butt" stroke-linejoin="miter"
 d="M 46.6119 13.6605 A 2.5575,2.5575 0 0,1 41.4969,13.6605A 2.5575,2.5575 0 0,1 46.6119,13.6605Z"/>
<path
 fill="#000000" stroke="#000000" stroke-width="0.72" stroke-linecap="butt" stroke-linejoin="miter"
 d="M 50.7376 19.9955 A 2.5575,2.5575 0 0,1 45.6226,19.9955A 2.5575,2.5575 0 0,1 50.7376,19.9955Z"/>
<path
 fill="#000000" stroke="#000000" stroke-width="0.72" stroke-linecap="butt" stroke-linejoin="miter"
 d="M 51.3455 27.531 A 2.5575,2.5575 0 0,1 46.2305,27.531A 2.5575,2.5575 0 0,1 51.3455,27.531Z"/>
<path
 fill="#000000" stroke="#000000" stroke-width="0.72" stroke-linecap="butt" stroke-linejoin="miter"
 d="M 48.2885 34.4454 A 2.5575,2.5575 0 0,1 43.1735,34.4454A 2.5575,2.5575 0 0,1 48.2885,34.4454Z"/>
<path
 fill="#807b88" stroke="#000000" stroke-width="0.72" stroke-linecap="butt" stroke-linejoin="miter"
 d="M 42.3057 39.0671 A 2.5575,2.5575 0 0,1 37.1907,39.0671A 2.5575,2.5575 0 0,1 42.3057,39.0671Z"/>
<path
 fill="#000000" stroke="#000000" stroke-width="0.72" stroke-linecap="butt" stroke-linejoin="miter"
 d="M 42.3057 46.6271 A 2.5575,2.5575 0 0,1 37.1907,46.6271A 2.5575,2.5575 0 0,1 42.3057,46.6271Z"/>
<path
 fill="#d90000" stroke="#000000" stroke-width="0.72" stroke-linecap="butt" stroke-linejoin="miter"
 d="M 42.3057 54.1871 A 2.5575,2.5575 0 0,1 37.1907,54.1871A 2.5575,2.5575 0 0,1 42.3057,54.1871Z"/>
<path
 fill="#d90000" stroke="#000000" stroke-width="0.72" stroke-linecap="butt" stroke-linejoin="miter"
 d="M 42.3057 61.7471 A 2.5575,2.5575 0 0,1 37.1907,61.7471A 2.5575,2.5575 0 0,1 42.3057,61.7471Z"/>
<path
 fill="#d90000" stroke="#000000" stroke-width="0.72" stroke-linecap="butt" stroke-linejoin="miter"
 d="M 42.3057 69.3071 A 2.5575,2.5575 0 0,1 37.1907,69.3071A 2.5575,2.5575 0 0,1 42.3057,69.3071Z"/>
<path
 fill="#d90000" stroke="#000000" stroke-width="0.72" stroke-linecap="butt" stroke-linejoin="miter"
 d="M 42.3057 76.8671 A 2.5575,2.5575 0 0,1 37.1907,76.8671A 2.5575,2.5575 0 0,1 42.3057,76.8671Z"/>
<path
 fill="#d90000" stroke="#000000" stroke-width="0.72" stroke-linecap="butt" stroke-linejoin="miter"
 d="M 42.3057 84.4271 A 2.5575,2.5575 0 0,1 37.1907,84.4271A 2.5575,2.5575 0 0,1 42.3057,84.4271Z"/>
<path
 fill="#d90000" stroke="#000000" stroke-width="0.72" stroke-linecap="butt" stroke-linejoin="miter"
 d="M 42.3057 91.9871 A 2.5575,2.5575 0 0,1 37.1907,91.9871A 2.5575,2.5575 0 0,1 42.3057,91.9871Z"/>
<path
 fill="#d90000" stroke="#000000" stroke-width="0.72" stroke-linecap="butt" stroke-linejoin="miter"
 d="M 42.3057 99.5471 A 2.5575,2.5575 0 0,1 37.1907,99.5471A 2.5575,2.5575 0 0,1 42.3057,99.5471Z"/>
<path
 fill="#d90000" stroke="#000000" stroke-width="0.72" stroke-linecap="butt" stroke-linejoin="miter"
 d="M 42.3057 107.107 A 2.5575,2.5575 0 0,1 37.1907,107.107A 2.5575,2.5575 0 0,1 42.3057,107.107Z"/>
<path
 fill="#d90000" stroke="#000000" stroke-width="0.72" stroke-linecap="butt" stroke-linejoin="miter"
 d="M 42.3057 114.667 A 2.5575,2.5575 0 0,1 37.1907,114.667A 2.5575,2.5575 0 0,1 42.3057,114.667Z"/>
<path
 fill="#d90000" stroke="#000000" stroke-width="0.72" stroke-linecap="butt" stroke-linejoin="miter"
 d="M 42.3057 122.227 A 2.5575,2.5575 0 0,1 37.1907,122.227A 2.5575,2.5575 0 0,1 42.3057,122.227Z"/>
<text x="37.247" y="132.48" id="text1012">
  <tspan x="37.247" y="132.48" fill="#807b88"  font-variant="normal" font-weight="normal" font-style="normal" font-family="Bitstream Vera Sans" font-size="7.5" id="tspan1013">Y</tspan>
</text>
<text x="37.247" y="140.04" id="text1014">
  <tspan x="37.247" y="140.04" fill="#000000"  font-variant="normal" font-weight="normal" font-style="normal" font-family="Bitstream Vera Sans" font-size="7.5" id="tspan1015">Y</tspan>
</text>
<text x="37.0407" y="147.6" id="text1016">
  <tspan x="37.0407" y="147.6" fill="#000000"  font-variant="normal" font-weight="normal" font-style="normal" font-family="Bitstream Vera Sans" font-size="7.5" id="tspan1017">U</tspan>
</text>
<text x="37.0407" y="155.16" id="text1018">
  <tspan x="37.0407" y="155.16" fill="#000000"  font-variant="normal" font-weight="normal" font-style="normal" font-family="Bitstream Vera Sans" font-size="7.5" id="tspan1019">U</tspan>
</text>
<text x="42.3865" y="160.505" id="text1020">
  <tspan x="42.3865" y="160.505" fill="#d90000"  font-variant="normal" font-weight="normal" font-style="normal" font-family="Bitstream Vera Sans" font-size="7.5" id="tspan1021">U</tspan>
</text>
<text x="49.9465" y="160.505" id="text1022">
  <tspan x="49.9465" y="160.505" fill="#807b88"  font-variant="normal" font-weight="normal" font-style="normal" font-family="Bitstream Vera Sans" font-size="7.5" id="tspan1023">U</tspan>
</text>
<text x="57.5065" y="160.505" id="text1024">
  <tspan x="57.5065" y="160.505" fill="#807b88"  font-variant="normal" font-weight="normal" font-style="normal" font-family="Bitstream Vera Sans" font-size="7.5" id="tspan1025">U</tspan>
</text>
<path
 fill="#d90000" stroke="#000000" stroke-width="0.72" stroke-linecap="butt" stroke-linejoin="miter"
 d="M 70.3315 157.813 A 2.5575,2.5575 0 0,1 65.2165,157.813A 2.5575,2.5575 0 0,1 70.3315,157.813Z"/>
<path
 fill="#d90000" stroke="#000000" stroke-width="0.72" stroke-linecap="butt" stroke-linejoin="miter"
 d="M 77.8915 157.813 A 2.5575,2.5575 0 0,1 72.7765,157.813A 2.5575,2.5575 0 0,1 77.8915,157.813Z"/>
<path
 fill="#d90000" stroke="#000000" stroke-width="0.72" stroke-linecap="butt" stroke-linejoin="miter"
 d="M 85.4515 157.813 A 2.5575,2.5575 0 0,1 80.3365,157.813A 2.5575,2.5575 0 0,1 85.4515,157.813Z"/>
<text x="87.7465" y="160.505" id="text1026">
  <tspan x="87.7465" y="160.505" fill="#807b88"  font-variant="normal" font-weight="normal" font-style="normal" font-family="Bitstream Vera Sans" font-size="7.5" id="tspan1027">U</tspan>
</text>
<path
 fill="#d90000" stroke="#000000" stroke-width="0.72" stroke-linecap="butt" stroke-linejoin="miter"
 d="M 100.571 157.813 A 2.5575,2.5575 0 0,1 95.4565,157.813A 2.5575,2.5575 0 0,1 100.571,157.813Z"/>
<path
 fill="none" stroke="#000000" stroke-width="0.72" stroke-linecap="butt" stroke-linejoin="miter"
 d="M 14.6025 157.813 L 18.3825 157.813 "/>
<text x="7.5" y="160.505" id="text1028">
  <tspan x="7.5" y="160.505" fill="#000000"  font-variant="normal" font-weight="normal" font-style="normal" font-family="Bitstream Vera Sans" font-size="7.5" id="tspan1029">5&apos;</tspan>
</text>
</svg>
